<!DOCTYPE svg PUBLIC "-//W3C//DTD SVG 1.1//EN" "http://www.w3.org/Graphics/SVG/1.1/DTD/svg11.dtd">
<!-- Uploaded to: SVG Repo, www.svgrepo.com, Transformed by: SVG Repo Mixer Tools -->
<svg height="800px" width="800px" version="1.1" id="Layer_1" xmlns="http://www.w3.org/2000/svg" xmlns:xlink="http://www.w3.org/1999/xlink" viewBox="0 0 470 470" xml:space="preserve" fill="#000000">
<g id="SVGRepo_bgCarrier" stroke-width="0"/>
<g id="SVGRepo_tracerCarrier" stroke-linecap="round" stroke-linejoin="round"/>
<g id="SVGRepo_iconCarrier"> <g> <g> <path style="fill:#EA4640;" d="M235,10c124.297,0,225,100.698,225,225c0,124.297-100.703,225-225,225 C110.698,460,10,359.297,10,235C10,110.698,110.698,10,235,10z"/> </g> <g> <g> <path style="fill:#FFFFFF;" d="M242.959,90c56.875,0,102.949,46.074,102.949,102.954s-46.074,102.954-102.949,102.954 c-15.361,0-29.863-3.438-42.9-9.434v56.621c0,16.563-13.467,30.029-30.029,30.029S140,359.658,140,343.096V188.667l0.171,0.078 C142.402,133.843,187.534,90,242.959,90z"/> </g> <g id="XMLID_27_"> <g> <path style="fill:#EA4640;" d="M242.959,154.346c18.955,0,34.316,15.361,34.316,34.321s-15.361,34.316-34.316,34.316h-34.321 v-34.316C208.638,169.707,223.989,154.346,242.959,154.346z"/> </g> <g> <path style="fill:#231F20;" d="M401.182,68.816C356.805,24.44,297.787,0,235,0C172.211,0,113.192,24.44,68.816,68.816 C24.439,113.192,0,172.211,0,235c0,62.787,24.439,121.805,68.816,166.182C113.193,445.56,172.211,470,235,470 c62.787,0,121.805-24.44,166.183-68.817C445.56,356.805,470,297.787,470,235C470,172.211,445.56,113.193,401.182,68.816z M387.04,387.04C346.44,427.641,292.444,450,235,450c-57.446,0-111.442-22.359-152.042-62.96C42.359,346.44,20,292.445,20,235 c0-57.447,22.359-111.443,62.958-152.042S177.553,20,235,20c57.445,0,111.44,22.359,152.04,62.958 C427.641,123.558,450,177.554,450,235C450,292.444,427.641,346.44,387.04,387.04z"/> <path style="fill:#231F20;" d="M242.959,80c-29.352,0-57.152,11.217-78.282,31.585c-20.574,19.832-32.741,46.304-34.398,74.736 c-0.183,0.76-0.279,1.547-0.279,2.347v154.429c0,22.072,17.957,40.029,40.029,40.029s40.029-17.957,40.029-40.029V300.98 c10.647,3.274,21.663,4.928,32.9,4.928c62.28,0,112.949-50.671,112.949-112.954S305.239,80,242.959,80z M242.959,285.908 c-13.404,0-26.432-2.866-38.722-8.519c-3.096-1.424-6.704-1.173-9.573,0.665c-2.87,1.839-4.605,5.012-4.605,8.42v56.621 c0,11.044-8.985,20.029-20.029,20.029s-20.029-8.985-20.029-20.029V190.587c0.088-0.47,0.143-0.95,0.163-1.436 c0.977-24.025,11.06-46.458,28.395-63.168C195.94,109.228,218.811,100,242.959,100c51.252,0,92.949,41.699,92.949,92.954 S294.211,285.908,242.959,285.908z"/> <path style="fill:#231F20;" d="M242.959,144.346c-24.439,0-44.321,19.882-44.321,44.321v34.316c0,5.523,4.477,10,10,10h34.321 c24.436,0,44.316-19.88,44.316-44.316C287.275,164.228,267.395,144.346,242.959,144.346z M242.959,212.983h-24.321v-24.316 c0-13.411,10.911-24.321,24.321-24.321c13.408,0,24.316,10.911,24.316,24.321C267.275,202.075,256.367,212.983,242.959,212.983z "/> </g> </g> </g> </g> </g>
</svg>